<mxfile host="app.diagrams.net" modified="2023-06-08T14:38:37.392Z" agent="Mozilla/5.0 (Windows NT 10.0; Win64; x64) AppleWebKit/537.36 (KHTML, like Gecko) Chrome/114.0.0.0 Safari/537.36 Edg/114.0.1823.41" version="21.3.7" etag="JbiH4r0u1qsRfOPcyrYC" type="github">
  <diagram name="Page-1" id="RRUGRucasb_zp4WN6-td">
    <mxGraphModel>
      <root>
        <mxCell id="0" />
        <mxCell id="1" parent="0" />
      </root>
    </mxGraphModel>
  </diagram>
</mxfile>
